<?xml version="1.0" encoding="utf-8"?>
<!-- Generator: Adobe Illustrator 28.1.0, SVG Export Plug-In . SVG Version: 6.00 Build 0)  -->
<svg version="1.1" id="Calque_1" xmlns="http://www.w3.org/2000/svg" xmlns:xlink="http://www.w3.org/1999/xlink" x="0px" y="0px"
	 viewBox="0 0 409.7 251.3" style="enable-background:new 0 0 409.7 251.3;" xml:space="preserve">
<path d="M159.2,165.1c0,20-15.3,35.3-35.3,35.3c-1.6,0-2.8,0-4.3-0.4c0.4,1.6,0.4,2.8,0.4,4.3c0,20-15.3,35.3-35.3,35.3
	s-35.3-15.3-35.3-35.3c0-1.6,0-2.8,0.4-4.3c-1.6,0.4-2.8,0.4-4.3,0.4c-20,0-35.3-15.3-35.3-35.3c0-7.5,2-14.1,5.5-19.6
	c-3.5-5.5-5.5-12.2-5.5-19.6c0-7.5,2-14.1,5.5-19.6c-3.5-5.5-5.5-12.2-5.5-19.6c0-20,15.3-35.3,35.3-35.3c1.6,0,2.8,0,4.3,0.4
	c-0.4-1.6-0.4-2.8-0.4-4.3c0-20,15.3-35.3,35.3-35.3S120,27.5,120,47.5c0,1.6,0,2.8-0.4,4.3c1.6-0.4,2.8-0.4,4.3-0.4
	c20,0,35.3,15.3,35.3,35.3S143.9,122,123.9,122s-35.3-15.3-35.3-35.3c0-1.6,0-2.8,0.4-4.3c-1.6,0.4-2.8,0.4-4.3,0.4
	c-1.6,0-2.8,0-4.3-0.4c0.4,1.6,0.4,2.8,0.4,4.3c0,7.5-2,14.1-5.5,19.6c3.5,5.5,5.5,12.2,5.5,19.6c0,7.5-2,14.1-5.5,19.6
	c3.5,5.5,5.5,12.2,5.5,19.6c0,1.6,0,2.8-0.4,4.3c1.6-0.4,2.8-0.4,4.3-0.4c1.6,0,2.8,0,4.3,0.4c-0.4-1.6-0.4-2.8-0.4-4.3
	c0-20,15.3-35.3,35.3-35.3S159.2,145.2,159.2,165.1L159.2,165.1z"/>
<path d="M394.5,86.7c0,7.5-2,14.1-5.5,19.6c3.5,5.5,5.5,12.2,5.5,19.6c0,7.5-2,14.1-5.5,19.6c3.5,5.5,5.5,12.2,5.5,19.6
	s-2,14.1-5.5,19.6c3.5,5.5,5.5,12.2,5.5,19.6c0,20-15.3,35.3-35.3,35.3c-20,0-35.3-15.3-35.3-35.3c0-7.5,2-14.1,5.5-19.6
	c-3.5-5.5-5.5-12.2-5.5-19.6s2-14.1,5.5-19.6c-3.5-5.5-5.5-12.2-5.5-19.6c0-1.6,0-2.8,0.4-4.3c-1.6,0.4-2.8,0.4-4.3,0.4
	c-1.6,0-2.8,0-4.3-0.4c0.4,1.6,0.4,2.8,0.4,4.3c0,20-15.3,35.3-35.3,35.3c-20,0-35.3-15.3-35.3-35.3c0-1.6,0-2.8,0.4-4.3
	c-1.6,0.4-2.8,0.4-4.3,0.4c-1.6,0-2.8,0-4.3-0.4c0.4,1.6,0.4,2.8,0.4,4.3c0,7.5-2,14.1-5.5,19.6c3.5,5.5,5.5,12.2,5.5,19.6
	s-2,14.1-5.5,19.6c3.5,5.5,5.5,12.2,5.5,19.6c0,20-15.3,35.3-35.3,35.3s-35.3-15.3-35.3-35.3c0-7.5,2-14.1,5.5-19.6
	c-3.5-5.5-5.5-12.2-5.5-19.6s2-14.1,5.5-19.6c-3.5-5.5-5.5-12.2-5.5-19.6c0-7.5,2-14.1,5.5-19.6c-3.5-5.5-5.5-12.2-5.5-19.6
	s2-14.1,5.5-19.6c-3.5-5.5-5.5-12.2-5.5-19.6c0-20,15.3-35.3,35.3-35.3s35.3,15.3,35.3,35.3c0,1.6,0,2.8-0.4,4.3
	c1.6-0.4,2.8-0.4,4.3-0.4c20,0,35.3,15.3,35.3,35.3c0,1.6,0,2.8-0.4,4.3c1.6-0.4,2.8-0.4,4.3-0.4c1.6,0,2.8,0,4.3,0.4
	c-0.4-1.6-0.4-2.8-0.4-4.3c0-20,15.3-35.3,35.3-35.3c1.6,0,2.8,0,4.3,0.4c-0.4-1.6-0.4-2.8-0.4-4.3c0-20,15.3-35.3,35.3-35.3
	c20,0,35.3,15.3,35.3,35.3c0,7.5-2,14.1-5.5,19.6C392.5,72.6,394.5,79.3,394.5,86.7z"/>
</svg>
