<?xml version="1.0" encoding="UTF-8"?>
<svg id="Calque_2" data-name="Calque 2" xmlns="http://www.w3.org/2000/svg" viewBox="0 0 170.07874 170.07874">
  <path d="m69.84003,28.81v7.26996h30.06v-7.26996h-30.06Zm30.12994,7.08002v7.33997h7.35004v-7.33997h-7.35004Zm7.40002,7.12v7.33997h7.34003v-7.33997h-7.34003Zm7.31,7.20996v7.34003h7.34003v-7.34003h-7.34003Zm.12,24.04999v7.34003h7.35004v-7.34003h-7.35004Zm-7.14996,7.24005v7.34998h7.33997v-7.34998h-7.33997Zm-7.34003,7.15997v7.34003h7.34003v-7.34003h-7.34003Zm-52.47998-14.21997v7.34998h7.33997v-7.34998h-7.33997Zm7.25,7.15997v7.34003h7.33997v-7.34003h-7.33997Zm7.15997,7.34003v7.33997h7.34003v-7.33997h-7.34003Zm.22003-52.96002v7.34998h7.33997v-7.34998h-7.33997Zm-7.16003,7.25v7.34998h7.35004v-7.34998h-7.35004Zm-7.33997,7.15997v7.34003h7.33997v-7.34003h-7.33997Zm-.13,24.05005v.12h.20001v-.12h-.20001Zm.13-16.75v.03998h.07001v-.03998h-.07001Zm82.15997,76.29999v.33997h.45001v-.33997h-.45001Zm-67.82001-30.84003v7.35004h7.34003v-7.35004h-7.34003Zm-7.15997,7.25v7.35004h7.34998v-7.35004h-7.34998Zm-7.34003,7.16003v7.33997h7.34003v-7.33997h-7.34003Zm52.44-14.49005v7.34003h7.34003v-7.34003h-7.34003Zm7.25,7.15002v7.34003h7.34003v-7.34003h-7.34003Zm7.15002,7.34003v7.34998h7.34998v-7.34998h-7.34998Zm-45.04004-21.64001v7.27002h30.76001v-7.27002h-30.76001Zm60.52002,38.07001v.33997h.45001v-.33997h-.45001Zm0,0v.33997h.45001v-.33997h-.45001Z"/>
  <path d="m137.34003,73.78998v-16.39001h-15.31v16.87h8.08997v50.65002h-8.17999v9.08002H47.78998v-9.29999h-7.81v-50.13h7.85004v-.12h.20001v-16.71002h-.07001v-.03998h-15.25v16.87h.01996v66.69995h7.25v-.01996h90.14001v.01996h7.25v-67.47998h-.02997Zm-7.22003,60.21002h.45001v.33997h-.45001v-.33997Z"/>
</svg>