<?xml version="1.0" encoding="UTF-8"?>
<svg id="Calque_1" data-name="Calque 1" xmlns="http://www.w3.org/2000/svg" viewBox="0 0 170.07874 170.07874">
  <path d="m122.81288,58.89205h14.66744v82.20767H32.59843V58.88317h14.25555l-.16329-.20233c.07285,5.14651.14569,10.29303.21862,15.43951-2.22671-.00003-4.4535-.00003-6.97608-.00003v51.99427c2.6067.4216,4.8027.77676,6.99869,1.13193.24915,2.17138.49829,4.34277.74106,6.45854h75.10356c0-2.45207,0-4.4522.00014-6.45255,2.38362-.42844,4.76707-.85666,7.12732-1.2807v-51.84159h-7.13707c.07927-5.14926.15854-10.29853.23781-15.4478l-.19186.20963Zm-53.28215-23.03982c10.2146-.00209,20.42919-.00418,30.64379-.00627,0,0-.19812.1714-.19812.1714v-7.03833h-29.92621c-.12346,2.59167-.22934,4.81422-.33521,7.03678l-.18424-.16358Zm-7.60661,7.61284h7.60661v-7.61284s.18424.16359.18421.16362c-2.39552.1499-4.79102.29978-7.60701.47596v7.14321l-.18382-.16995Zm38.25041-7.6191v7.61675c2.90086,0,5.25518,0,7.60949,0l-.18873.1716v-7.61696h-7.61889l.19812-.17139Zm-45.87993,15.22373h7.62952c0-2.81452,0-5.20957,0-7.60462,0,0,.18382.16994.18381.16995-2.32296.12591-4.64592.25181-7.01218.38006-.24732,2.89216-.43248,5.0574-.61764,7.22264l-.18351-.16803Zm53.48942-7.60697v7.60808h7.61091l-.18075.16313c-.12221-2.39569-.24443-4.79138-.38769-7.59961h-7.2312l.18873-.1716Zm-61.09332,15.21811h8.1111c-.19383-2.90854-.35052-5.25984-.5072-7.61115,0,0,.18351.16803.18354.16801-2.33485.14076-4.66973.28154-7.10377.4283-.20713,2.87267-.36375,5.04492-.52038,7.21716l-.16329-.20233Zm68.70424-7.61003v7.61162h7.60981s-.19186.20963-.19189.20959c-.00003-2.39971-.00003-4.79938-.00003-7.65808h-7.59863l.18075-.16313Zm-45.88563,45.64807c.0003,2.61208.00059,5.22414.00088,7.83621,10.2246.00012,20.44921.00023,30.67381.00036.00071-2.60964.00142-5.21928.00214-7.82892-10.22561-.00255-20.45122-.0051-30.67682-.00765Zm-15.00505-22.82944h-7.83515c.30708,2.38375.61415,4.76751.94469,7.33336,2.52768.18537,4.70907.34534,6.89046.50532v-7.83868Zm60.68096-.00099v7.84553c2.42066-.21993,4.84134-.43986,7.38375-.67085.17195-2.71012.31359-4.9424.45521-7.17468h-7.83896Zm-53.05039,7.6167h-7.85828c.32361,2.38375.64721,4.76751.99852,7.35538,2.50488.17527,4.68232.32763,6.85976.48v-7.83537Zm45.43476-.00437v7.84365c2.42115-.215,4.8423-.43001,7.33573-.65142.19376-2.72251.35283-4.95736.51189-7.19222h-7.84762Zm-37.83243,7.60574h-7.83558c.23269,2.40238.46538,4.80474.70681,7.29728,2.7006.20758,4.91469.37776,7.12878.54796v-7.84524Zm30.22371.00019v7.84574c2.42149-.23625,4.84299-.47251,7.41723-.72367.16094-2.67177.29499-4.89691.42903-7.12207h-7.84626Zm-30.22147,22.06618v-6.84425h-7.42202c-.16042,3.10449-.28336,5.48382-.4063,7.86314,2.4346-.31687,4.86921-.63375,7.82832-1.01889Zm30.76556.11966c2.90739.35766,5.09874.62722,7.29009.89677v-7.85574h-7.834c.18434,2.35853.36868,4.71706.54391,6.95897Zm-38.36312,7.57165v-6.90987h-6.96173c-.35764,3.0872-.63277,5.46214-.9079,7.83706,2.4454-.28811,4.89081-.57622,7.86963-.92719Zm45.8576.15459c2.97259.31027,5.19313.54203,7.41367.77378-.16434-2.62479-.32869-5.24959-.51537-8.23097-2.93364.15783-5.13174.27609-7.32982.39435.14553,2.38178.29105,4.76359.43153,7.06284Zm-53.48064,7.34359c0-2.39821,0-4.60565,0-6.81309h-7.07523c-.30453,3.12414-.53542,5.49291-.76632,7.86168,2.467-.3299,4.93401-.65978,7.84155-1.04859Zm61.05021.13697c3.03213.371,5.23877.64098,7.44541.91096-.13342-2.5962-.26682-5.1924-.40364-7.85485h-7.43127c.13274,2.36656.26549,4.73313.3895,6.9439Z"/>
</svg>