<?xml version="1.0" encoding="UTF-8"?>
<svg id="Calque_1" data-name="Calque 1" xmlns="http://www.w3.org/2000/svg" viewBox="0 0 169.69 210.91">
  <defs>
    <style>
      .cls-1 {
        fill: #fff;
      }
    </style>
  </defs>
  <g>
    <path class="cls-1" d="M0,0H169.69V210.91H0V0ZM68.13,155.39h8.06v-7.98c2.54-.14,5.07-.27,7.87-.42v-7.76c.97-.07,1.95-.19,2.92-.19,16.93-.01,33.86-.01,50.79-.01,1.11,0,2.23,0,3.28,0v-16.1h-8.02v7.99h-48.9c0,3.04,0,5.71,0,8.38h-7.87c0,2.86,0,5.51,0,8.15h-8.04c0,2.75,0,5.37,0,7.98h-8.52c.16,2.82,.3,5.41,.45,8.01h-8.39V49.43c2.98-.14,5.73-.27,8.47-.4-.17,2.75-.35,5.49-.53,8.39,2.44,0,4.3-.07,6.15,.04,.63,.04,1.23,.54,1.84,.83,.14,2.34,.29,4.68,.44,7.11,2.64,.21,5.21,.41,7.8,.6v7.58c3.04,.18,5.51,.32,7.99,.45,.15,2.54,.3,5.08,.45,7.69h7.8v-7.62h-8.33v-8.57c-2.78,.2-5.39,.38-8,.56v-8.97c-2.91,.42-5.54,.79-8.14,1.14v-8.74c-2.61-.16-5.06-.3-7.52-.45-.24-2.52-.47-5.05-.74-7.87h-7.94v-7.89h-7.88V171.42h15.9c.18-2.77,.36-5.41,.53-8.05h7.66c.15-2.89,.29-5.44,.42-7.98Zm48.41-48.64c.15,2.53,.29,5.05,.44,7.62,2.67,.15,5.13,.28,7.59,.41,.2,2.58,.4,5.16,.6,7.72h7.7v-7.66c-2.9,0-5.62,0-8.34,0,.14-2.69,.28-5.37,.45-8.49-3.12,.17-5.81,.32-8.5,.47v-8.31h-7.66v7.69c2.65,.19,5.18,.38,7.73,.55Zm-15.63-17.04c-.15,2.77-.3,5.55-.45,8.29h8.04v-7.66c-2.61-.2-5.12-.4-7.63-.59-.2-2.52-.4-5.03-.61-7.63h-7.7v8.05c2.93-.16,5.64-.32,8.35-.46Z"/>
    <path d="M60.06,163.38c-.18,2.63-.35,5.27-.54,8.04h-15.9V33.32h7.88v7.89h7.94c.26,2.82,.5,5.35,.74,7.87,0,0,.05-.05,.05-.05-2.75,.13-5.5,.26-8.48,.4v114.02h8.39l-.07-.07Z"/>
    <path d="M84.13,139.31v-8.38h48.9v-7.99h8.02v16.1c-1.06,0-2.17,0-3.28,0-16.93,0-33.86,0-50.79,.01-.97,0-1.95,.12-2.92,.19l.08,.08Z"/>
    <path d="M67.67,58.29c2.62-.37,5.24-.75,8.16-1.16,0,3.4,0,6.19,0,8.97,0,0,.08-.08,.08-.08-2.58-.2-5.15-.41-7.79-.61-.15-2.43-.29-4.77-.43-7.12,0-.01-.02,0-.02,0Z"/>
    <path d="M100.92,89.7c-2.72,.15-5.44,.3-8.36,.47v-8.05h7.7c.21,2.6,.41,5.12,.61,7.63,0,0,.05-.05,.05-.05Z"/>
    <path d="M124.53,114.83h8.35v7.66h-7.7c-.2-2.55-.4-5.13-.59-7.72,0,0-.05,.06-.05,.06Z"/>
    <path d="M60.17,49.08c2.45,.15,4.91,.29,7.52,.45,0,2.95,0,5.84,0,8.75,0,.01,.02-.01,.01,0-.62-.28-1.22-.78-1.85-.81-1.85-.11-3.71-.04-6.15-.04,.18-2.9,.36-5.64,.53-8.39,0,0-.05,.05-.05,.05Z"/>
    <path d="M100.87,89.75c2.51,.19,5.02,.39,7.63,.59v7.66h-8.04c.15-2.75,.3-5.52,.45-8.3,0,0-.05,.05-.05,.05Z"/>
    <path d="M83.89,74.05c-2.47-.14-4.93-.29-7.97-.46,0-2.51,0-5.04,0-7.57,0,0-.08,.08-.08,.08,2.6-.18,5.21-.36,7.99-.56v8.57l.07-.06Z"/>
    <path d="M83.82,74.1h8.33v7.62h-7.8c-.15-2.61-.3-5.15-.46-7.68,0,0-.08,.06-.08,.06Z"/>
    <path d="M116.53,106.76c-2.53-.19-5.06-.37-7.72-.56v-7.69h7.66v8.31l.06-.05Z"/>
    <path d="M116.48,106.81c2.69-.15,5.38-.3,8.5-.47-.16,3.11-.3,5.8-.45,8.49,0,0,.06-.06,.05-.06-2.47-.13-4.93-.26-7.59-.41-.15-2.57-.29-5.09-.45-7.61,0,0-.06,.06-.06,.06Z"/>
    <path d="M84.06,139.23v7.76c-2.79,.15-5.33,.28-7.87,.41,0,0,.07,.06,.07,.06v-8.16c2.62,0,5.25,0,7.87,0,0,0-.07-.07-.07-.07Z"/>
    <path d="M68.21,155.45v-7.99c2.66,0,5.35,0,8.05,0,0,0-.07-.06-.07-.06,0,2.53,0,5.06,0,7.98-3,0-5.53,0-8.06,0,0,0,.08,.06,.08,.06Z"/>
    <path d="M60.13,163.45c-.15-2.6-.29-5.19-.45-8.01,3.1,0,5.81,0,8.52,0,0,0-.08-.06-.07-.06-.13,2.55-.26,5.09-.42,7.99-2.59,0-5.12,0-7.66,0,0,0,.08,.07,.08,.07Z"/>
  </g>
  <rect x="51.84" y="40.96" width="8.34" height="8.34"/>
  <rect x="59.64" y="48.95" width="8.34" height="8.34"/>
  <rect x="67.51" y="57.29" width="8.34" height="8.34"/>
  <rect x="75.5" y="65.28" width="8.34" height="8.34"/>
  <rect x="83.84" y="73.62" width="8.34" height="8.34"/>
  <rect x="92.18" y="81.96" width="8.34" height="8.34"/>
  <rect x="100.52" y="89.76" width="8.34" height="8.34"/>
  <rect x="108.86" y="98.1" width="8.34" height="8.34"/>
  <rect x="116.64" y="106.44" width="8.34" height="8.34"/>
  <rect x="124.62" y="114.44" width="8.34" height="8.34"/>
  <rect x="75.99" y="139" width="8.34" height="8.34"/>
  <rect x="68.01" y="147.34" width="8.34" height="8.34"/>
  <rect x="59.67" y="155.3" width="8.34" height="8.34"/>
  <rect x="51.72" y="163.05" width="8.34" height="8.34"/>
</svg>