<?xml version="1.0" encoding="UTF-8"?>
<svg id="Calque_2" data-name="Calque 2" xmlns="http://www.w3.org/2000/svg" viewBox="0 0 170.07874 170.07874">
  <path d="m27.03258,129.01551v-19.2524h7.38321v19.2524h-7.38321Zm75.17164-42.75147h-7.38321v7.38321h7.38321v-7.38321Zm-7.03044,7.27385h-7.38321v7.38321h7.38321v-7.38321Zm-7.28011,7.28879h-7.38321v7.38321h7.38321v-7.38321Zm47.74708-22.89559h-7.38321v7.38321h7.38321v-7.38321Zm-7.03044,7.27385h-7.38321v7.38321h7.38321v-7.38321Zm-7.28011,7.28879h-7.38321v7.38321h7.38321v-7.38321Zm-7.18242,7.26451h-7.38321v7.38321h7.38321v-7.38321Zm-7.03044,7.27385h-7.38321v7.38321h7.38321v-7.38321Zm-7.28011,7.28879h-7.38321v7.38321h7.38321v-7.38321Zm-7.31945,7.06737h-7.38321v7.38321h7.38321v-7.38321Zm-7.03044,7.27385h-7.38321v7.38321h7.38321v-7.38321Zm-7.28011,7.28879h-37.75421v7.38321h37.75421v-7.38321Zm-36.96357-7.07667h-7.38321v7.38321h7.38321v-7.38321Zm.28357-26.32173h-7.38321v7.38321h7.38321v-7.38321Zm25.00994-7.36341h-25.25985v7.38321h25.25985v-7.38321Zm6.97486,5.52255h-7.38321v7.38321h7.38321v-7.38321Zm7.1333,6.90319h-7.38321v7.38321h7.38321v-7.38321Zm48.04073-80.87016l-19.2524.01563.00599,7.38321,19.2524-.01563-.00599-7.38321Zm14.36011,51.163l-.03065-37.7542-7.38321.00599.03065,37.7542,7.38321-.00599Zm-7.10668-36.95781l-.00599-7.38321-7.38321.00599.00599,7.38321,7.38321-.00599Zm-26.32149.30495l-.00599-7.38321-7.38321.00599.00599,7.38321,7.38321-.00599Zm-7.34457,23.18124l-.01902-23.42517-7.38321.00599.01902,23.42517,7.38321-.00599Zm7.14013,7.3288l-.00599-7.38321-7.38321.00599.00599,7.38321,7.38321-.00599Zm7.04319,7.26189l-.00599-7.38321-7.38321.00599.00599,7.38321,7.38321-.00599Zm-6.86601,7.34735l-.00599-7.38321-7.38321.00599.00599,7.38321,7.38321-.00599Z"/>
</svg>