<?xml version="1.0" encoding="UTF-8"?>
<svg id="Calque_1" data-name="Calque 1" xmlns="http://www.w3.org/2000/svg" viewBox="0 0 283.46 283.46">
  <path d="M113.59,163.05c0,10.89-8.33,19.22-19.22,19.22-.85,0-1.5,0-2.35-.21,.21,.85,.21,1.5,.21,2.35,0,10.89-8.33,19.22-19.22,19.22s-19.22-8.33-19.22-19.22c0-.85,0-1.5,.21-2.35-.85,.21-1.5,.21-2.35,.21-10.89,0-19.22-8.33-19.22-19.22,0-4.06,1.07-7.69,2.99-10.68-1.92-2.99-2.99-6.62-2.99-10.68s1.07-7.69,2.99-10.68c-1.92-2.99-2.99-6.62-2.99-10.68,0-10.89,8.33-19.22,19.22-19.22,.85,0,1.5,0,2.35,.21-.21-.85-.21-1.5-.21-2.35,0-10.89,8.33-19.22,19.22-19.22s19.22,8.33,19.22,19.22c0,.85,0,1.5-.21,2.35,.85-.21,1.5-.21,2.35-.21,10.89,0,19.22,8.33,19.22,19.22s-8.33,19.22-19.22,19.22-19.22-8.33-19.22-19.22c0-.85,0-1.5,.21-2.35-.85,.21-1.5,.21-2.35,.21s-1.5,0-2.35-.21c.21,.85,.21,1.5,.21,2.35,0,4.06-1.07,7.69-2.99,10.68,1.92,2.99,2.99,6.62,2.99,10.68s-1.07,7.69-2.99,10.68c1.92,2.99,2.99,6.62,2.99,10.68,0,.85,0,1.5-.21,2.35,.85-.21,1.5-.21,2.35-.21s1.5,0,2.35,.21c-.21-.85-.21-1.5-.21-2.35,0-10.89,8.33-19.22,19.22-19.22s19.22,8.33,19.22,19.22Z"/>
  <path d="M241.75,120.33c0,4.06-1.07,7.69-2.99,10.68,1.92,2.99,2.99,6.62,2.99,10.68s-1.07,7.69-2.99,10.68c1.92,2.99,2.99,6.62,2.99,10.68s-1.07,7.69-2.99,10.68c1.92,2.99,2.99,6.62,2.99,10.68,0,10.89-8.33,19.22-19.22,19.22s-19.22-8.33-19.22-19.22c0-4.06,1.07-7.69,2.99-10.68-1.92-2.99-2.99-6.62-2.99-10.68s1.07-7.69,2.99-10.68c-1.92-2.99-2.99-6.62-2.99-10.68,0-.85,0-1.5,.21-2.35-.85,.21-1.5,.21-2.35,.21s-1.5,0-2.35-.21c.21,.85,.21,1.5,.21,2.35,0,10.89-8.33,19.22-19.22,19.22s-19.22-8.33-19.22-19.22c0-.85,0-1.5,.21-2.35-.85,.21-1.5,.21-2.35,.21s-1.5,0-2.35-.21c.21,.85,.21,1.5,.21,2.35,0,4.06-1.07,7.69-2.99,10.68,1.92,2.99,2.99,6.62,2.99,10.68s-1.07,7.69-2.99,10.68c1.92,2.99,2.99,6.62,2.99,10.68,0,10.89-8.33,19.22-19.22,19.22s-19.23-8.33-19.23-19.22c0-4.06,1.07-7.69,2.99-10.68-1.92-2.99-2.99-6.62-2.99-10.68s1.07-7.69,2.99-10.68c-1.92-2.99-2.99-6.62-2.99-10.68s1.07-7.69,2.99-10.68c-1.92-2.99-2.99-6.62-2.99-10.68s1.07-7.69,2.99-10.68c-1.92-2.99-2.99-6.62-2.99-10.68,0-10.89,8.33-19.22,19.23-19.22s19.22,8.33,19.22,19.22c0,.85,0,1.5-.21,2.35,.85-.21,1.5-.21,2.35-.21,10.89,0,19.22,8.33,19.22,19.22,0,.85,0,1.5-.21,2.35,.85-.21,1.5-.21,2.35-.21s1.5,0,2.35,.21c-.21-.85-.21-1.5-.21-2.35,0-10.89,8.33-19.22,19.22-19.22,.85,0,1.5,0,2.35,.21-.21-.85-.21-1.5-.21-2.35,0-10.89,8.33-19.22,19.22-19.22s19.22,8.33,19.22,19.22c0,4.06-1.07,7.69-2.99,10.68,1.92,2.99,2.99,6.62,2.99,10.68Z"/>
</svg>