<?xml version="1.0" encoding="utf-8"?>
<!-- Generator: Adobe Illustrator 27.0.0, SVG Export Plug-In . SVG Version: 6.00 Build 0)  -->
<svg version="1.1" id="Calque_1" xmlns="http://www.w3.org/2000/svg" xmlns:xlink="http://www.w3.org/1999/xlink" x="0px" y="0px"
	 viewBox="0 0 170.08 186.98" style="enable-background:new 0 0 170.08 186.98;" xml:space="preserve">
<style type="text/css">
	.st0{fill:#FFFFFF;}
</style>
<g>
	<g>
		<path class="st0" d="M9.44,184.82c0-61,0-121.99,0-182.99c58.5,0,116.99,0,175.49,0c0,61,0,121.99,0,182.99
			C126.43,184.82,67.93,184.82,9.44,184.82z M115.85,60.39c-0.12-2.36-0.24-4.72-0.38-7.49c-2.78,0-4.95,0-7.13,0
			c0-2.35,0-4.7,0-7.51c-3.13,0-5.32,0-7.51,0c0-2.2,0-4.39,0-6.94c-10.03,0-19.61,0-29.5,0c-0.12,2.56-0.22,4.75-0.33,6.94
			c-2.36,0.15-4.72,0.29-7.5,0.46c0,2.71,0,4.88,0,7.05c-2.29,0.12-4.58,0.25-6.92,0.37c-0.24,2.85-0.42,4.99-0.6,7.12
			c-2.3,0.14-4.6,0.27-7.01,0.42c-0.2,2.83-0.35,4.98-0.5,7.12c-4.64,0-9.28,0-14.06,0c0,27.58,0,54.21,0,81.04
			c34.71,0,69.03,0,103.39,0c0-27.17,0-53.8,0-81.04c-5.09,0-9.77,0-14.46,0c0-2.37,0-4.73,0-7.55
			C120.23,60.39,118.04,60.39,115.85,60.39z"/>
		<path d="M123.34,67.94c4.69,0,9.37,0,14.46,0c0,27.23,0,53.87,0,81.04c-34.36,0-68.68,0-103.39,0c0-26.83,0-53.46,0-81.04
			c4.78,0,9.42,0,14.06,0l-0.16-0.2c0.07,5.07,0.14,10.15,0.22,15.22c-2.19,0-4.39,0-6.87,0c0,17.35,0,34.19,0,51.24
			c2.57,0.42,4.73,0.77,6.9,1.12c0.25,2.14,0.5,4.27,0.75,6.34c24.88,0,49.2,0,74.01,0c0-2.42,0-4.38,0-6.33
			c2.35-0.42,4.7-0.85,7.02-1.27c0-17.27,0-34.03,0-51.09c-2.62,0-4.83,0-7.03,0c0.08-5.08,0.16-10.15,0.24-15.23L123.34,67.94z"/>
		<path d="M71.01,45.39c0.1-2.19,0.21-4.38,0.33-6.94c9.89,0,19.47,0,29.5,0c0,2.55,0,4.74,0,6.94c0,0,0.19-0.17,0.19-0.17
			c-10.07,0-20.14,0-30.2,0.01L71.01,45.39z"/>
		<path d="M63.51,52.9c0-2.17,0-4.34,0-7.05c2.77-0.17,5.14-0.32,7.5-0.46c0,0-0.18-0.16-0.18-0.16c0,2.36,0,4.71,0,7.5
			c-2.77,0-5.13,0-7.5,0L63.51,52.9z"/>
		<path d="M100.84,45.39c2.19,0,4.38,0,7.51,0c0,2.8,0,5.16,0,7.51l0.18-0.17c-2.32,0-4.64,0-7.5,0c0-2.83,0-5.17,0-7.51
			L100.84,45.39z"/>
		<path d="M55.99,60.39c0.18-2.14,0.36-4.27,0.6-7.12c2.34-0.13,4.63-0.25,6.92-0.37c0,0-0.18-0.17-0.18-0.17c0,2.36,0,4.72,0,7.5
			c-2.79,0-5.15,0-7.52,0L55.99,60.39z"/>
		<path d="M108.35,52.9c2.18,0,4.35,0,7.13,0c0.14,2.77,0.26,5.13,0.38,7.49l0.18-0.16c-2.34,0-4.68,0-7.5,0c0-2.79,0-5.14,0-7.5
			L108.35,52.9z"/>
		<path d="M48.47,67.93c0.15-2.14,0.3-4.28,0.5-7.12c2.41-0.14,4.71-0.28,7.01-0.42c0,0-0.18-0.16-0.18-0.16
			c0.16,2.32,0.31,4.64,0.5,7.5c-3.19,0-5.6,0-8,0L48.47,67.93z"/>
		<path d="M115.85,60.39c2.19,0,4.38,0,7.49,0c0,2.82,0,5.18,0,7.55c0,0,0.19-0.21,0.19-0.21c-2.34,0-4.68,0-7.5,0
			c0-2.87,0-5.18,0-7.5L115.85,60.39z"/>
		<path class="st0" d="M116.03,60.23c0,2.32,0,4.64,0,7.5c2.83,0,5.16,0,7.5,0c-0.08,5.08-0.16,10.15-0.24,15.23l0.25-0.24
			c-2.35,0-4.71,0-7.73,0c0,3.04,0,5.39,0,7.73l0.23-0.23c-2.35,0-4.7,0-7.74,0c0,3.03,0,5.38,0,7.73l0.23-0.23
			c-2.33,0-4.66,0-7.73,0c0,3.05,0,5.39,0,7.73l0.22-0.22c-10.08,0-20.16-0.01-30.24-0.01l0.22,0.23c0-2.35,0-4.7,0-7.73
			c-2.99,0-5.36,0-7.72,0l0.23,0.23c0-2.36,0-4.72,0-7.72c-3,0-5.38,0-7.75,0l0.22,0.22c0-2.36,0-4.73,0-7.73c-2.89,0-5.31,0-7.72,0
			l0.24,0.23c-0.07-5.07-0.14-10.15-0.22-15.22c2.4,0,4.81,0,8,0c-0.19-2.87-0.35-5.18-0.5-7.5c2.37,0,4.73,0,7.52,0
			c0-2.77,0-5.13,0-7.5c2.36,0,4.73,0,7.5,0c0-2.79,0-5.15,0-7.5c10.07,0,20.14,0,30.2-0.01c0,2.34,0,4.67,0,7.51
			c2.86,0,5.18,0,7.5,0c0,2.36,0,4.71,0,7.5C111.35,60.23,113.69,60.23,116.03,60.23z"/>
		<path class="st0" d="M123.31,135.32c0,1.95,0,3.91,0,6.33c-24.81,0-49.13,0-74.01,0c-0.24-2.06-0.5-4.2-0.75-6.34l-0.25,0.16
			c2.43-0.32,4.87-0.65,7.73-1.03c0-2.37,0-4.55,0-6.72l-0.24,0.24c2.41-0.28,4.82-0.57,7.76-0.91c0-2.45,0-4.63,0-6.81l-0.23,0.23
			c2.4-0.31,4.8-0.62,7.72-0.99c0-2.41,0-4.58,0-6.76l-0.23,0.22c10.08,0,20.16,0,30.24,0l-0.22-0.22c0.18,2.33,0.36,4.65,0.53,6.86
			c2.87,0.35,5.03,0.61,7.19,0.88l-0.22-0.23c0.14,2.35,0.28,4.7,0.42,6.97c2.93,0.3,5.12,0.53,7.31,0.76c0,0-0.23-0.23-0.23-0.23
			c0.13,2.33,0.26,4.67,0.38,6.85c2.99,0.36,5.17,0.63,7.34,0.9L123.31,135.32z"/>
		<path class="st0" d="M48.55,135.31c-2.16-0.35-4.33-0.7-6.9-1.12c0-17.05,0-33.89,0-51.24c2.49,0,4.68,0,6.87,0
			c0,0-0.24-0.23-0.24-0.23c0.3,2.35,0.6,4.7,0.93,7.23c2.5,0.18,4.65,0.34,6.79,0.5c0,0-0.22-0.22-0.22-0.22
			c0.32,2.35,0.64,4.7,0.98,7.25c2.47,0.17,4.62,0.32,6.76,0.47l-0.23-0.23c0.23,2.37,0.46,4.74,0.7,7.2
			c2.66,0.2,4.85,0.37,7.03,0.53c0,0-0.22-0.23-0.22-0.23c0,2.57,0,5.15,0,7.72l0.23-0.22c-2.32,0-4.64,0-7.32,0
			c-0.15,3.06-0.27,5.4-0.39,7.75l0.23-0.23c-2.26,0-4.53,0-6.87,0c-0.35,3.04-0.62,5.38-0.89,7.72c0,0,0.24-0.24,0.24-0.24
			c-2.27,0-4.53,0-6.98,0c-0.3,3.08-0.53,5.41-0.75,7.75C48.3,135.47,48.55,135.31,48.55,135.31z"/>
		<path class="st0" d="M123.3,82.96c2.2,0,4.41,0,7.03,0c0,17.07,0,33.82,0,51.09c-2.32,0.42-4.67,0.84-7.02,1.27
			c0,0,0.24,0.16,0.24,0.16c-0.13-2.56-0.26-5.12-0.39-7.74c-3.01,0-5.17,0-7.33,0c0,0,0.23,0.23,0.23,0.23
			c-0.16-2.59-0.31-5.18-0.49-8.12c-2.91,0.16-5.07,0.28-7.24,0.4c0,0,0.22,0.23,0.22,0.23c0-2.52,0-5.04,0-7.74
			c-3.41,0-5.56,0-7.72,0c0,0,0.22,0.22,0.22,0.22c0-2.57,0-5.14,0-7.72l-0.22,0.22c2.39-0.23,4.78-0.46,7.31-0.71
			c0.16-2.64,0.29-4.83,0.42-7.02c0,0-0.23,0.23-0.23,0.23c2.39-0.21,4.77-0.42,7.23-0.63c0.19-2.69,0.35-4.89,0.5-7.1l-0.23,0.23
			c2.39-0.22,4.77-0.43,7.28-0.66c0.17-2.67,0.31-4.87,0.44-7.07C123.55,82.72,123.3,82.96,123.3,82.96z"/>
		<path d="M101.04,105.23c0,2.57,0,5.14,0,7.72c-10.08,0-20.16,0-30.24,0c0-2.57,0-5.15,0-7.72
			C80.88,105.22,90.96,105.23,101.04,105.23z"/>
		<path d="M56.01,90.45c-2.15-0.16-4.3-0.31-6.79-0.5c-0.32-2.53-0.63-4.88-0.93-7.23c2.42,0,4.83,0,7.72,0
			C56.01,85.72,56.01,88.08,56.01,90.45z"/>
		<path d="M123.55,82.72c-0.14,2.2-0.28,4.4-0.44,7.07c-2.51,0.23-4.9,0.44-7.28,0.66c0-2.35,0-4.69,0-7.73
			C118.84,82.72,121.2,82.72,123.55,82.72z"/>
		<path d="M63.54,97.95c-2.15-0.15-4.3-0.3-6.76-0.47c-0.35-2.55-0.66-4.9-0.98-7.25c2.37,0,4.74,0,7.75,0
			C63.54,93.23,63.54,95.59,63.54,97.95z"/>
		<path d="M116.05,90.22c-0.16,2.2-0.31,4.41-0.5,7.1c-2.46,0.22-4.85,0.43-7.23,0.63c0-2.35,0-4.7,0-7.73
			C111.36,90.22,113.71,90.22,116.05,90.22z"/>
		<path d="M71.03,105.45c-2.18-0.17-4.37-0.33-7.03-0.53c-0.24-2.46-0.47-4.83-0.7-7.2c2.36,0,4.73,0,7.72,0
			C71.03,100.75,71.03,103.1,71.03,105.45z"/>
		<path d="M108.55,97.72c-0.13,2.19-0.26,4.39-0.42,7.02c-2.54,0.25-4.93,0.48-7.31,0.71c0-2.34,0-4.68,0-7.73
			C103.89,97.72,106.22,97.72,108.55,97.72z"/>
		<path d="M63.31,120.47c0.12-2.35,0.24-4.69,0.39-7.75c2.68,0,5,0,7.32,0c0,2.18,0,4.35,0,6.76
			C68.12,119.85,65.72,120.16,63.31,120.47z"/>
		<path d="M100.82,112.73c2.16,0,4.32,0,7.72,0c0,2.71,0,5.23,0,7.74c-2.16-0.26-4.32-0.53-7.19-0.88
			C101.18,117.38,101,115.05,100.82,112.73z"/>
		<path d="M55.79,127.96c0.27-2.34,0.54-4.68,0.89-7.72c2.34,0,4.61,0,6.87,0c0,2.18,0,4.36,0,6.81
			C60.61,127.4,58.2,127.68,55.79,127.96z"/>
		<path d="M108.32,120.24c2.17-0.12,4.33-0.24,7.24-0.4c0.18,2.94,0.33,5.53,0.49,8.12c-2.19-0.23-4.38-0.45-7.31-0.76
			C108.6,124.94,108.46,122.59,108.32,120.24z"/>
		<path d="M48.3,135.47c0.23-2.34,0.45-4.67,0.75-7.75c2.44,0,4.71,0,6.98,0c0,2.18,0,4.35,0,6.72
			C53.17,134.83,50.73,135.15,48.3,135.47z"/>
		<path d="M115.82,127.73c2.16,0,4.32,0,7.33,0c0.13,2.62,0.26,5.18,0.39,7.74c-2.18-0.27-4.35-0.53-7.34-0.9
			C116.08,132.4,115.95,130.06,115.82,127.73z"/>
	</g>
</g>
<path d="M48.21,82.77l0.08,7.54L56,90.43l0.07-7.69C56.06,82.73,48.21,82.84,48.21,82.77z"/>
<polyline points="55.8,90.38 55.91,97.77 63.34,97.88 "/>
<path d="M55.82,90.24l0.08,7.54l7.71,0.12l0.07-7.69C63.68,90.2,55.82,90.31,55.82,90.24z"/>
<path d="M63.29,97.61l0.08,7.54l7.71,0.12l0.07-7.69C71.15,97.58,63.29,97.69,63.29,97.61z"/>
<path d="M48.23,60.45L48.31,68l8.03,0.05l-0.11-7.75C56.23,60.29,48.23,60.53,48.23,60.45z"/>
<path d="M55.91,52.74l0.08,7.54l7.71,0.12l0.07-7.69C63.76,52.7,55.91,52.81,55.91,52.74z"/>
<path d="M63.32,45.18l0.08,7.54l7.71,0.12l0.07-7.69C71.17,45.14,63.32,45.25,63.32,45.18z"/>
<path d="M100.8,45.18l0.08,7.54l7.71,0.12l0.07-7.69C108.65,45.14,100.8,45.25,100.8,45.18z"/>
<path d="M108.46,52.76l0.08,7.54l7.71,0.12l0.07-7.69C116.31,52.72,108.46,52.83,108.46,52.76z"/>
<path d="M115.96,60.3l0.08,7.54l7.71,0.12l0.07-7.69C123.81,60.26,115.96,60.37,115.96,60.3z"/>
<path d="M115.65,82.68l0.08,7.54l7.71,0.12l0.07-7.69C123.5,82.64,115.65,82.75,115.65,82.68z"/>
<path d="M108.22,90.18l0.08,7.54l7.71,0.12l0.07-7.69C116.08,90.15,108.22,90.26,108.22,90.18z"/>
<path d="M100.58,97.7l0.08,7.54l7.71,0.12l0.07-7.69C108.43,97.66,100.58,97.77,100.58,97.7z"/>
<path d="M100.69,112.59l0.08,7.54l7.71,0.12l0.07-7.69C108.55,112.55,100.69,112.66,100.69,112.59z"/>
<path d="M108.2,119.86l0.07,7.75l7.74,0.1l0.04-7.89C116.05,119.82,108.2,119.93,108.2,119.86z"/>
<path d="M115.88,127.67l0.08,7.54l7.71,0.12l0.07-7.69C123.73,127.63,115.88,127.74,115.88,127.67z"/>
<path d="M63.29,112.7l0.08,7.54l7.71,0.12l0.07-7.69C71.14,112.66,63.29,112.77,63.29,112.7z"/>
<path d="M55.76,120.08l0.08,7.54l7.71,0.12l0.07-7.69C63.61,120.04,55.76,120.15,55.76,120.08z"/>
<path d="M48.23,127.68l0.08,7.54l7.71,0.12l0.07-7.69C56.09,127.64,48.23,127.75,48.23,127.68z"/>
</svg>
